HIERARCHY
ROOT Hips
{
	OFFSET 0.000000 0.000000 0.000000
	CHANNELS 6 Xposition Yposition Zposition Zrotation Yrotation Xrotation 
	JOINT LHipJoint
	{
		OFFSET 0.000000 0.000000 0.000000
		CHANNELS 3 Zrotation Yrotation Xrotation
		JOINT LeftUpLeg
		{
			OFFSET 1.363060 -1.794630 0.839290
			CHANNELS 3 Zrotation Yrotation Xrotation
			JOINT LeftLeg
			{
				OFFSET 2.448110 -6.726130 0.000000
				CHANNELS 3 Zrotation Yrotation Xrotation
				JOINT LeftFoot
				{
					OFFSET 2.562200 -7.039590 0.000000
					CHANNELS 3 Zrotation Yrotation Xrotation
					JOINT LeftToeBase
					{
						OFFSET 0.157640 -0.433110 2.322550
						CHANNELS 3 Zrotation Yrotation Xrotation
						End Site
						{
							OFFSET 0.000000 0.000000 0.000000
						}
					}
				}
			}
		}
	}
	JOINT RHipJoint
	{
		OFFSET 0.000000 0.000000 0.000000
		CHANNELS 3 Zrotation Yrotation Xrotation
		JOINT RightUpLeg
		{
			OFFSET -1.305520 -1.794630 0.839290
			CHANNELS 3 Zrotation Yrotation Xrotation
			JOINT RightLeg
			{
				OFFSET -2.542530 -6.985550 0.000000
				CHANNELS 3 Zrotation Yrotation Xrotation
				JOINT RightFoot
				{
					OFFSET -2.568260 -7.056230 0.000000
					CHANNELS 3 Zrotation Yrotation Xrotation
					JOINT RightToeBase
					{
						OFFSET -0.164730 -0.452590 2.363150
						CHANNELS 3 Zrotation Yrotation Xrotation
						End Site
						{
							OFFSET 0.000000 0.000000 0.000000
						}
					}
				}
			}
		}
	}
	JOINT LowerBack
	{
		OFFSET 0.000000 0.000000 0.000000
		CHANNELS 3 Zrotation Yrotation Xrotation
		JOINT Spine
		{
			OFFSET 0.028270 2.035590 -0.193380
			CHANNELS 3 Zrotation Yrotation Xrotation
			JOINT Spine1
			{
				OFFSET 0.056720 2.048850 -0.042750
				CHANNELS 3 Zrotation Yrotation Xrotation
				JOINT Neck
				{
					OFFSET 0.000000 0.000000 0.000000
					CHANNELS 3 Zrotation Yrotation Xrotation
					JOINT Neck1
					{
						OFFSET -0.054170 1.746240 0.172020
						CHANNELS 3 Zrotation Yrotation Xrotation
						JOINT Head
						{
							OFFSET 0.104070 1.761360 -0.123970
							CHANNELS 3 Zrotation Yrotation Xrotation
							End Site
							{
								OFFSET 0.000000 0.000000 0.000000
							}
						}
					}
				}
				JOINT LeftShoulder
				{
					OFFSET 0.000000 0.000000 0.000000
					CHANNELS 3 Zrotation Yrotation Xrotation
					JOINT LeftArm
					{
						OFFSET 3.362410 1.200890 -0.311210
						CHANNELS 3 Zrotation Yrotation Xrotation
						JOINT LeftForeArm
						{
							OFFSET 4.983000 -0.000000 -0.000000
							CHANNELS 3 Zrotation Yrotation Xrotation
							JOINT LeftHand
							{
								OFFSET 3.483560 -0.000000 -0.000000
								CHANNELS 3 Zrotation Yrotation Xrotation
								JOINT LeftFingerBase
								{
									OFFSET 0.000000 0.000000 0.000000
									CHANNELS 3 Zrotation Yrotation Xrotation
									JOINT LeftHandIndex1
									{
										OFFSET 0.715260 -0.000000 -0.000000
										CHANNELS 3 Zrotation Yrotation Xrotation
										End Site
										{
											OFFSET 0.000000 0.000000 0.000000
										}
									}
								}
								JOINT LThumb
								{
									OFFSET 0.000000 0.000000 0.000000
									CHANNELS 3 Zrotation Yrotation Xrotation
									End Site
									{
										OFFSET 0.000000 0.000000 0.000000
									}
								}
							}
						}
					}
				}
				JOINT RightShoulder
				{
					OFFSET 0.000000 0.000000 0.000000
					CHANNELS 3 Zrotation Yrotation Xrotation
					JOINT RightArm
					{
						OFFSET -3.136600 1.374050 -0.404650
						CHANNELS 3 Zrotation Yrotation Xrotation
						JOINT RightForeArm
						{
							OFFSET -5.241900 -0.000000 -0.000000
							CHANNELS 3 Zrotation Yrotation Xrotation
							JOINT RightHand
							{
								OFFSET -3.444170 -0.000000 -0.000000
								CHANNELS 3 Zrotation Yrotation Xrotation
								JOINT RightFingerBase
								{
									OFFSET 0.000000 0.000000 0.000000
									CHANNELS 3 Zrotation Yrotation Xrotation
									JOINT RightHandIndex1
									{
										OFFSET -0.622530 -0.000000 -0.000000
										CHANNELS 3 Zrotation Yrotation Xrotation
										End Site
										{
											OFFSET 0.000000 0.000000 0.000000
										}
									}
								}
								JOINT RThumb
								{
									OFFSET 0.000000 0.000000 0.000000
									CHANNELS 3 Zrotation Yrotation Xrotation
									End Site
									{
										OFFSET 0.000000 0.000000 0.000000
									}
								}
							}
						}
					}
				}
			}
		}
	}
}
MOTION
Frames: 5
Frame Time: 0.008333
0.493914 17.346254 19.171755 3.603346 -0.292196 1.375729 2.973173 2.910387 0.955513 -30.071727 -3.719615 -0.577800 1.216991 6.759763 22.567610 0.985759 -3.209246 -8.042047 0.000192 0.032746 0.090021 -4.925743 -3.368784 1.382405 18.577177 13.481152 -30.099280 -3.012991 -10.291475 30.062326 1.969976 -13.859715 -1.159304 -0.147129 2.471527 -6.810850 -3.180959 -0.047698 5.895301 0.703155 -0.564303 -0.255293 4.305659 0.035306 -2.715465 -8.174322 -2.039751 -13.896107 4.180140 -1.603867 15.045453 3.306169 -1.174825 9.653190 -7.088327 3.002805 -2.132002 -80.500740 -6.725589 25.230890 14.464639 -25.594207 -3.923370 -0.810697 -2.700304 8.109645 17.515123 23.434718 8.171864 -7.125000 0.000000 0.000000 -13.201846 56.931296 -3.915533 5.700660 -2.490593 -2.001232 84.087728 -4.205030 10.671368 -13.627136 20.259893 -3.017988 0.770360 -0.476342 9.409991 -12.615261 10.678443 -2.612290 7.125000 0.000000 0.000000 9.597454 -18.768026 6.084969
0.485385 17.344622 19.257673 3.588315 -0.262542 1.537779 2.967339 2.921610 0.960657 -29.993213 -3.546790 -0.331456 1.176530 6.659325 22.286145 1.005036 -3.296555 -8.101983 0.001817 -0.183546 -0.504291 -4.928129 -3.374179 1.379898 18.539175 13.681918 -29.960234 -2.700691 -9.728446 28.242946 1.993482 -13.956847 -1.175788 -0.150470 2.499080 -6.887177 -3.238289 -0.095621 5.783104 0.719746 -0.629932 -0.267078 4.384878 0.000327 -2.668849 -8.188716 -2.046124 -13.903934 4.190552 -1.608635 15.020112 3.311754 -1.176196 9.644154 -7.083346 2.998081 -2.129508 -80.416466 -6.921598 25.244478 14.452655 -25.581423 -3.924285 -0.788259 -2.692923 8.175580 17.213252 23.381157 8.002450 -7.125000 0.000000 0.000000 -13.501602 56.802185 -3.955110 5.701204 -2.489335 -2.002648 84.124960 -4.243160 10.585092 -13.641209 20.281640 -3.023899 0.772335 -0.473626 9.352417 -12.625667 10.671149 -2.612341 7.125000 0.000000 0.000000 9.589556 -18.777049 6.077909
0.478716 17.343756 19.344023 3.608479 -0.196201 1.661307 2.962671 2.933215 0.965830 -29.960093 -3.361151 -0.046533 1.139046 6.561597 22.017137 1.027534 -3.403233 -8.163097 0.004451 -0.429655 -1.180594 -4.929056 -3.380499 1.371624 18.469036 13.786805 -29.772935 -2.398347 -9.155929 26.423677 2.003054 -13.966599 -1.271022 -0.160636 2.581652 -7.116060 -3.312777 -0.165113 5.689618 0.732649 -0.724735 -0.260712 4.464286 -0.051116 -2.588405 -8.195936 -2.057584 -13.926075 4.176706 -1.617905 14.963552 3.305909 -1.180365 9.624536 -7.080202 2.992621 -2.124375 -80.319368 -7.131500 25.239075 14.419546 -25.542965 -3.923215 -0.770641 -2.659475 8.042420 16.983956 22.879752 7.738920 -7.125000 0.000000 0.000000 -13.460031 56.219439 -3.751928 5.702934 -2.488870 -2.002031 84.164292 -4.236920 10.446327 -13.659576 20.310735 -3.032422 0.769429 -0.469722 9.404465 -12.600873 10.632286 -2.596689 7.125000 0.000000 0.000000 9.610268 -18.821885 6.081742
0.475934 17.340974 19.433159 3.658627 -0.057506 1.717941 2.959102 2.946739 0.972810 -29.965693 -3.187869 0.332296 1.100763 6.454564 21.729482 1.053783 -3.579462 -8.115215 0.006911 -0.531817 -1.461432 -4.927710 -3.390105 1.352017 18.388283 13.659432 -29.504399 -2.125572 -8.566606 24.619221 1.960320 -13.700652 -1.272511 -0.188990 2.794833 -7.708304 -3.360339 -0.253650 5.678009 0.743728 -0.842827 -0.225975 4.521063 -0.117016 -2.475216 -8.211193 -2.064675 -14.177923 4.143698 -1.601996 14.981554 3.296252 -1.174891 9.682290 -7.073496 2.982833 -2.123134 -80.282871 -7.325043 25.224414 14.461753 -25.613152 -3.961071 -0.767102 -2.624472 7.860475 16.956641 22.345059 7.571008 -7.125000 0.000000 0.000000 -13.189403 55.648415 -3.492679 5.709613 -2.488082 -2.000106 84.156811 -4.120333 10.290575 -13.646926 20.292492 -3.025684 0.766949 -0.476904 9.555604 -12.602648 10.673998 -2.607945 7.125000 0.000000 0.000000 9.608115 -18.774279 6.090599
0.471054 17.338005 19.524126 3.661327 0.060193 1.763226 2.955806 2.961338 0.980831 -29.917615 -3.032451 0.748874 1.058451 6.337782 21.415560 1.068354 -3.698724 -8.042368 0.008621 -0.600399 -1.649938 -4.929433 -3.398324 1.333835 18.343561 13.650923 -29.170319 -1.869714 -7.978784 22.843944 1.926861 -13.484154 -1.230351 -0.221683 3.025151 -8.349123 -3.372394 -0.315834 5.669337 0.756471 -0.924039 -0.201345 4.563031 -0.162668 -2.397087 -8.208582 -2.082958 -14.337497 4.104057 -1.611265 14.963837 3.277625 -1.180208 9.708902 -7.062493 2.976539 -2.124870 -80.260853 -7.437510 25.234342 14.561072 -25.764133 -4.023062 -0.751924 -2.614738 7.951989 16.767024 22.270383 7.450305 -7.125000 0.000000 0.000000 -13.360215 55.521053 -3.499713 5.713235 -2.489128 -1.998169 84.152298 -4.056754 10.174843 -13.635658 20.276573 -3.019847 0.765729 -0.481754 9.595871 -12.596386 10.714553 -2.617138 7.125000 0.000000 0.000000 9.611479 -18.729244 6.102536
